<svg width="24" height="24" viewBox="0 0 24 24" fill="none" xmlns="http://www.w3.org/2000/svg">
<path d="M8.6 22.5L6.7 19.3L3.1 18.5L3.45 14.8L1 12L3.45 9.2L3.1 5.5L6.7 4.7L8.6 1.5L12 2.95L15.4 1.5L17.3 4.7L20.9 5.5L20.55 9.2L23 12L20.55 14.8L20.9 18.5L17.3 19.3L15.4 22.5L12 21.05L8.6 22.5ZM9.45 19.95L12 18.85L14.6 19.95L16 17.55L18.75 16.9L18.5 14.1L20.35 12L18.5 9.85L18.75 7.05L16 6.45L14.55 4.05L12 5.15L9.4 4.05L8 6.45L5.25 7.05L5.5 9.85L3.65 12L5.5 14.1L5.25 16.95L8 17.55L9.45 19.95Z" fill="black"/>
<path d="M11.4854 6.53082L12.8996 6.5319" stroke="black" stroke-width="2" stroke-linecap="round" stroke-linejoin="round"/>
<path d="M12.192 7.23847L12.1877 12.8953" stroke="black" stroke-width="2" stroke-linecap="round" stroke-linejoin="round"/>
<path d="M10.6153 13.2532L13.7599 13.2556C13.8236 13.2556 13.8866 13.2682 13.9454 13.2926C14.0042 13.317 14.0576 13.3528 14.1026 13.3978C14.1476 13.4429 14.1832 13.4964 14.2076 13.5552C14.2319 13.614 14.2444 13.6771 14.2443 13.7408L14.2429 15.6558C14.2394 16.1995 14.0209 16.7197 13.6351 17.1027C13.2492 17.4857 12.7275 17.7005 12.1839 17.7C11.6402 17.6995 11.1188 17.4839 10.7337 17.1002C10.3485 16.7166 10.1309 16.196 10.1283 15.6524L10.1301 13.7376C10.1301 13.6739 10.1427 13.6108 10.1671 13.5519C10.1915 13.4931 10.2273 13.4396 10.2724 13.3946C10.3175 13.3496 10.371 13.3139 10.4299 13.2895C10.4888 13.2652 10.5519 13.2528 10.6156 13.2528L10.6153 13.2532Z" stroke="black" stroke-width="2" stroke-linecap="round" stroke-linejoin="round"/>
</svg>
